<?xml version="1.0" standalone="no"?>
<!DOCTYPE svg PUBLIC "-//W3C//DTD SVG 20010904//EN"
 "http://www.w3.org/TR/2001/REC-SVG-20010904/DTD/svg10.dtd">
<svg version="1.0" xmlns="http://www.w3.org/2000/svg"
 width="512.000000pt" height="512.000000pt" viewBox="0 0 512.000000 512.000000"
 preserveAspectRatio="xMidYMid meet">

<g transform="translate(0.000000,512.000000) scale(0.100000,-0.100000)"
fill="#000000" stroke="none">
<path d="M2530 4036 c-105 -25 -2195 -719 -2252 -747 -90 -46 -111 -94 -61
-141 44 -41 92 -60 340 -139 l231 -73 -40 -59 c-88 -129 -147 -302 -170 -492
l-12 -101 -41 -25 c-62 -39 -95 -111 -95 -206 0 -89 15 -121 73 -161 71 -50
80 -65 72 -118 -16 -110 -137 -407 -218 -536 -50 -79 -137 -182 -205 -243 -60
-54 -55 -69 43 -122 88 -47 207 -99 272 -119 40 -12 46 -11 105 18 38 19 87
56 123 92 167 170 209 449 134 891 -16 96 -18 120 -7 124 50 17 98 119 98 208
0 61 -20 101 -75 152 l-48 44 6 71 c7 83 37 202 74 301 22 58 38 82 97 140 40
39 96 87 126 107 37 24 273 123 705 294 358 141 670 262 694 270 101 32 169
11 196 -60 21 -55 11 -92 -32 -122 -17 -11 -305 -121 -639 -244 -335 -123
-629 -231 -654 -240 -31 -12 -46 -24 -48 -39 -2 -11 -1 -21 2 -21 3 0 238 -75
523 -166 686 -219 673 -215 768 -216 62 0 95 5 146 25 36 14 529 177 1095 362
566 186 1048 346 1072 356 51 22 92 61 92 88 0 31 -48 80 -109 110 -31 15
-231 83 -446 151 -899 282 -1583 507 -1703 559 -82 36 -159 45 -232 27z"/>
<path d="M4020 2559 c-47 -16 -366 -123 -710 -236 l-625 -206 -90 0 -90 0
-685 232 c-377 127 -694 230 -704 229 -26 -4 -35 -41 -43 -170 l-6 -107 60
-65 c136 -144 154 -279 61 -445 -26 -47 -28 -57 -18 -77 44 -82 349 -228 635
-304 262 -70 801 -109 1103 -81 207 20 410 50 517 76 126 31 415 141 491 186
79 47 166 136 198 200 l26 55 -2 369 c-3 320 -5 370 -18 372 -8 1 -53 -12
-100 -28z"/>
</g>
</svg>
